# xmcd CD database file
#
# Track frame offsets:
#	150
#	18852
#	36067
#	53015
#	71950
#	94502
#	124317
#	143427
#	167215
#	187442
#	207637
#	224512
#
# Disc length: 3227 seconds
#
# Revision: 0
# Processed by: cddbd v1.5.1PL0 Copyright (c) Steve Scherf et al.
# Submitted via: CDex 1.51
#
DISCID=b80c990c
DTITLE=Jazz Lounge - Hits Pop Vol.2
DYEAR=2003
DGENRE=Jazz
TTITLE0=Unchained Melody
TTITLE1=You Don't Have To Say You Love Me
TTITLE2=Love Letters in the Sand
TTITLE3=Softly as in a Morning Sunrise
TTITLE4=The End of the World
TTITLE5=Those were the Days
TTITLE6=Une Belle Histoire
TTITLE7=Arthur's Theme
TTITLE8=I Left My Heart in San Francisco
TTITLE9=Yesterday
TTITLE10=La Dernier Valse
TTITLE11=Yesterday Once More
EXTD=YEAR: 2003
EXTT0=
EXTT1=
EXTT2=
EXTT3=
EXTT4=
EXTT5=
EXTT6=
EXTT7=
EXTT8=
EXTT9=
EXTT10=
EXTT11=
PLAYORDER=
